# xmcd CD database file
#
# Track frame offsets:
#	150
#	11175
#	22992
#	36360
#	49867
#	62307
#	73570
#	88162
#	99942
#	109280
#	122937
#	135627
#	146485
#	156420
#
# Disc length: 2269 seconds
#
# Revision: 3
# Processed by: cddbd v1.4PL0 Copyright (c) Steve Scherf et al.
# Submitted via: CDex 1.50
#
DISCID=c208db0e
DTITLE=Various Artist - Mystery Train
DYEAR=1990
DGENRE=Blues
TTITLE0=Junior Parker - Mystery Train
TTITLE1=Junior Parker - Love My Baby
TTITLE2=Junior Parker - Feelin' Good
TTITLE3=Junior Parker - Fussin' And Fightin'
TTITLE4=Junior Parker - Feelin' Bad
TTITLE5=Junior Parker - Love My Baby (alt. take)
TTITLE6=Junior Parker - Sittin' Drinkin' And Thinkin'
TTITLE7=Junior Parker - Sittin' At The Bar
TTITLE8=Junior Parker - Sittin' At My Window
TTITLE9=James Cotton - Cotton Crop Blues
TTITLE10=James Cotton - Hold Me In Your Arms
TTITLE11=James Cotton - My Baby
TTITLE12=Pat Hare - Bonus Pay
TTITLE13=Pat Hare - I'm Gonna Murder My Baby
EXTD=Rounder CD 22 38\n\nOriginal sessions produced by Sam C. Phillips\n\nSubmitted 6/16/97\n[Jmccoy@efn.org] YEAR: 1990
EXTT0=
EXTT1=
EXTT2=
EXTT3=
EXTT4=
EXTT5=
EXTT6=
EXTT7=
EXTT8=
EXTT9=
EXTT10=
EXTT11=
EXTT12=
EXTT13=
PLAYORDER=
